<svg width="390" height="844" viewBox="0 0 390 844" fill="none" xmlns="http://www.w3.org/2000/svg">
<g clip-path="url(#clip0_0_151)">
<rect width="390" height="844" fill="#FAEA18"/>
<path d="M-21.0176 513.968C-21.0176 513.558 -21.0176 513.149 -21.0176 512.694C-21.0176 512.376 -21.0176 512.058 -20.9722 511.739C-20.9722 511.284 -20.9268 510.875 -20.9268 510.42C-20.9268 510.102 -20.8814 509.784 -20.8814 509.42C-20.836 508.919 -20.7906 508.419 -20.7452 507.873C-20.6998 507.555 -20.6998 507.237 -20.6544 506.918C-20.5636 506.1 -20.4728 505.236 -20.3366 504.372C-20.2912 504.099 -20.2458 503.826 -20.2004 503.553C-20.1096 502.916 -20.0188 502.28 -19.8826 501.643C-19.8372 501.234 -19.7464 500.87 -19.6556 500.46C-19.5648 499.915 -19.4286 499.369 -19.3378 498.778C-19.247 498.323 -19.1562 497.914 -19.02 497.459C-18.9746 497.186 -18.8838 496.913 -18.8384 496.64C-18.8384 496.64 -18.8384 496.64 -18.793 496.595C-18.1574 493.911 -17.2948 491.137 -16.2505 488.272C-14.2983 487.772 -14.2983 487.772 -14.2983 487.772L-14.7977 486.271C-14.7977 486.271 -12.0282 477.266 -6.30769 471.217C-4.03764 471.399 -4.03764 471.399 -4.03764 471.399L-4.53703 469.08C-4.53703 469.08 2.99954 460.257 4.77019 458.301L7.58504 459.393V457.619C7.58504 457.619 8.40227 457.073 9.94591 456.437C9.9913 456.437 10.0367 456.391 10.0821 456.391C10.3999 456.255 10.7631 456.164 11.1263 456.027C11.2625 455.982 11.3987 455.936 11.5349 455.891C11.5803 455.891 11.6257 455.845 11.6711 455.845C11.6257 455.8 11.6257 455.8 11.5803 455.755C11.2171 455.3 10.7631 454.799 10.3091 454.299C8.81087 452.707 6.76782 451.07 4.31618 450.206C4.81558 446.295 4.81557 446.295 4.81557 446.295L2.36392 448.978C2.36392 448.978 2.04611 448.705 1.5013 448.296C-0.269348 446.977 -4.26463 444.112 -6.6709 443.566C-5.94447 440.11 -5.94447 440.11 -5.94447 440.11L-8.16913 441.838C-8.16913 441.838 -13.5719 439.609 -16.7499 439.155C-17.4764 435.698 -17.4763 435.698 -17.4763 435.698L-18.2028 437.654C-18.2028 437.654 -19.1108 437.199 -20.609 436.699C-20.9722 436.562 -21.3354 436.471 -21.7441 436.335C-21.9257 436.29 -22.0619 436.244 -22.2435 436.199C-22.5159 436.108 -22.7883 436.062 -23.1061 435.971C-23.3331 435.926 -23.5147 435.88 -23.7417 435.789C-24.1957 435.698 -24.6951 435.562 -25.1491 435.471C-25.3761 435.425 -25.6031 435.38 -25.8302 435.334C-26.148 435.289 -26.5112 435.244 -26.829 435.198C-27.1014 435.153 -27.3738 435.153 -27.6008 435.107C-27.964 435.062 -28.3726 435.062 -28.7812 435.016C-29.0082 435.016 -29.2352 434.971 -29.4622 434.971C-30.0525 434.971 -30.6427 434.971 -31.2783 434.971C-31.5053 434.971 -31.7323 435.016 -31.9593 435.016C-32.4133 435.062 -32.8673 435.107 -33.3213 435.153C-33.5483 435.198 -33.7753 435.198 -34.0023 435.244C-34.6834 435.334 -35.319 435.471 -36 435.698C-36 435.698 -36 435.653 -35.9546 435.607C-35.9546 435.562 -35.9546 435.562 -35.9092 435.516C-35.8638 435.471 -35.8638 435.38 -35.773 435.289C-35.7276 435.244 -35.7276 435.198 -35.6822 435.107C-35.6368 435.016 -35.546 434.925 -35.5006 434.789C-35.4552 434.698 -35.4098 434.652 -35.3644 434.561C-35.2282 434.379 -35.092 434.152 -34.9104 433.97C-34.8196 433.879 -34.7288 433.743 -34.638 433.652C-34.5472 433.515 -34.4109 433.379 -34.2747 433.197C-34.1385 433.061 -34.0477 432.924 -33.9115 432.788C-33.7753 432.651 -33.6391 432.515 -33.5029 432.333C-33.3667 432.196 -33.2305 432.014 -33.0489 431.833C-32.8673 431.651 -32.6403 431.469 -32.4587 431.287C-32.1863 431.014 -31.8685 430.741 -31.5507 430.468C-31.3691 430.286 -31.1421 430.15 -30.9151 429.968C-30.6881 429.786 -30.4156 429.604 -30.1886 429.422C-29.9616 429.24 -29.7346 429.104 -29.5076 428.922C-29.2352 428.74 -28.9628 428.558 -28.645 428.331C-28.418 428.194 -28.1456 428.012 -27.8732 427.876C-27.3284 427.558 -26.7382 427.194 -26.1026 426.875C-25.7847 426.693 -25.5123 426.557 -25.1945 426.375C-24.8313 426.193 -24.4227 426.011 -24.0141 425.829C-23.6963 425.693 -23.3785 425.556 -23.0153 425.42C-22.5613 425.238 -22.1527 425.056 -21.6987 424.874C-21.5625 424.829 -21.4716 424.783 -21.3808 424.738C-17.9758 423.51 -13.8443 422.464 -8.80475 421.918C-5.85368 423.419 -5.35426 424.374 -5.35426 424.374L-5.85368 423.419C-5.85368 423.419 0.729477 424.056 5.72359 426.33L5.67821 426.284C5.8598 426.375 5.996 426.421 6.1776 426.512C6.22301 426.512 6.26842 426.557 6.31381 426.557C6.76782 426.784 7.17644 427.012 7.58504 427.239C7.94824 427.467 8.31146 427.694 8.62927 427.967C8.67467 428.012 8.76547 428.058 8.81087 428.103C9.44649 428.604 10.0367 429.195 10.4453 429.832C10.4907 429.922 10.5361 429.968 10.5815 430.059C10.7631 430.377 10.9447 430.696 11.0355 431.059C11.7619 429.604 11.7619 429.604 11.7619 429.604L17.7095 433.652L17.1647 431.605L19.8433 431.378L17.1647 430.377L12.9878 416.87L15.6664 415.642L11.8073 416.142C11.8073 416.142 11.5349 415.642 11.0809 414.778C9.7189 412.277 6.54082 406.865 2.90874 403.363C4.72478 401.544 4.72478 401.544 4.72478 401.544L2.36392 402.862C2.36392 402.862 -3.44742 394.676 -6.48929 392.948C-5.26346 390.31 -5.26346 390.31 -5.26346 390.31L-7.21571 392.129C-7.21571 392.129 -12.346 381.078 -17.431 380.032C-17.431 380.032 -10.2122 379.532 4.36156 382.488C4.22536 384.443 4.22536 384.443 4.22536 384.443L5.4512 383.579C5.4512 383.579 15.8026 388.446 19.0261 392.539C19.2531 393.084 19.4347 393.585 19.6163 394.04C20.1157 395.358 20.3428 396.223 20.4335 396.586C20.4335 396.632 20.4335 396.632 20.4335 396.632C20.4335 396.723 20.4789 396.768 20.4789 396.768L21.614 394.13C21.614 394.13 26.5173 398.224 29.9678 406.091C28.969 408.729 29.1506 409.548 29.1506 409.548L31.1028 407.274C31.1028 407.274 32.0562 408.411 32.9642 411.094C33.0096 411.185 33.055 411.322 33.055 411.458C33.1004 411.64 33.1912 411.867 33.2366 412.095C33.2821 412.277 33.3275 412.413 33.3729 412.595C33.4183 412.822 33.5091 413.095 33.5545 413.368C33.5999 413.505 33.6453 413.686 33.6907 413.823C33.7815 414.232 33.8723 414.687 33.9631 415.142C34.0085 415.278 34.0085 415.415 34.0539 415.551C34.0993 415.915 34.1901 416.324 34.2355 416.688C34.2809 416.87 34.2809 417.052 34.3263 417.234C34.3717 417.689 34.4171 418.189 34.5079 418.689C34.5079 418.78 34.5533 418.917 34.5533 419.007C34.5987 419.599 34.6441 420.281 34.6895 420.918C34.6895 421.1 34.6895 421.281 34.6895 421.463C34.6895 421.782 34.7349 422.055 34.7349 422.373C38.0038 416.324 42.5439 409.775 42.5439 409.775L46.63 410.094C46.63 410.094 46.63 410.094 45.4949 408.638C47.4472 405.182 49.7626 403.545 49.7626 403.545L52.2143 404.181C52.2143 404.181 52.2143 404.181 50.5799 401.589C58.2526 395.859 63.6554 395.04 63.6554 395.04L66.4248 397.678C66.4248 397.678 66.2432 396.859 65.426 394.403C81.271 392.402 91.9402 397.905 97.2976 403.681C98.1148 404.591 98.8412 405.455 99.386 406.364C91.7132 404.591 83.2232 408.32 83.2232 408.32L79.3187 406.865L80.7716 408.82L71.646 414.232L66.107 411.958C66.107 411.958 66.7426 412.777 68.8765 414.732C66.7426 416.051 59.3877 423.237 59.3877 423.237L53.1677 420.463C53.1677 420.463 52.9861 421.463 56.255 424.374C55.8918 424.419 55.574 424.51 55.2562 424.601C55.1654 424.647 55.0292 424.692 54.9384 424.692C54.7568 424.738 54.5752 424.829 54.439 424.874C54.3482 424.92 54.2573 424.965 54.1211 425.011C53.9849 425.056 53.8487 425.147 53.7579 425.193C53.6671 425.238 53.5763 425.284 53.5309 425.329C53.4401 425.375 53.3493 425.466 53.2585 425.511C53.2131 425.556 53.1223 425.602 53.0769 425.647C52.9861 425.693 52.9407 425.784 52.8953 425.829C52.8499 425.875 52.8045 425.92 52.7591 425.966C52.7137 426.011 52.6683 426.057 52.6229 426.102C52.5775 426.148 52.5775 426.193 52.5321 426.193C52.4867 426.239 52.4867 426.284 52.4413 426.33L52.3959 426.375C52.3959 426.421 52.3505 426.421 52.3505 426.421L49.2632 425.284C49.2632 425.284 49.2632 425.284 51.8965 427.739C49.4448 429.286 46.3576 434.016 44.6777 436.835C44.6323 436.881 44.6323 436.926 44.5869 436.972C44.1783 437.654 43.8605 438.245 43.6335 438.609C43.6335 438.654 43.5881 438.7 43.5881 438.745C43.5427 438.836 43.4973 438.927 43.4519 438.973C43.4519 439.018 43.4065 439.064 43.4065 439.064L40.7732 438.745C40.7732 438.745 40.7732 438.745 41.9083 440.383C39.1388 441.974 35.3705 447.386 32.7372 451.48C32.9642 451.298 33.1912 451.116 33.4183 450.888L33.4637 450.843C33.8723 450.479 34.3263 450.161 34.8257 449.797C34.8711 449.751 34.9619 449.706 35.0527 449.66C36.0061 448.978 37.0957 448.296 38.367 447.659C38.4578 447.614 38.594 447.568 38.6848 447.477C39.3204 447.159 39.956 446.841 40.637 446.568C40.7278 446.522 40.8186 446.522 40.9094 446.477C41.5451 446.204 42.2261 445.977 42.9071 445.704C43.0433 445.658 43.1795 445.613 43.3157 445.567C44.0421 445.294 44.8593 445.067 45.6766 444.84C45.7673 444.84 45.8128 444.794 45.9036 444.794H45.8582C49.8988 443.703 54.8022 442.929 60.7951 442.838C60.7951 445.476 60.7951 445.476 60.7951 445.476L62.7474 443.521C62.7474 443.521 68.6495 443.839 80.0452 450.388C78.0929 453.663 78.0929 453.663 78.0929 453.663L81.9974 451.07C81.9974 451.07 92.4397 456.937 96.0263 459.256C95.3907 462.531 95.3907 462.531 95.3907 462.531L97.6608 461.212C97.6608 461.212 99.7946 462.576 102.519 465.351C102.564 465.396 102.564 465.396 102.609 465.442C102.882 465.714 103.2 466.033 103.472 466.351C103.518 466.397 103.563 466.442 103.608 466.533C103.881 466.851 104.199 467.17 104.471 467.534C104.516 467.579 104.562 467.67 104.653 467.716C104.925 468.079 105.243 468.398 105.515 468.807C105.561 468.898 105.606 468.943 105.697 469.034C105.969 469.398 106.287 469.808 106.559 470.217C106.605 470.308 106.696 470.399 106.741 470.49C107.013 470.899 107.286 471.308 107.604 471.718C107.649 471.809 107.74 471.9 107.785 471.991C108.058 472.445 108.33 472.855 108.602 473.355C108.648 473.446 108.739 473.582 108.784 473.719C109.056 474.174 109.283 474.628 109.556 475.129C109.874 475.72 110.146 476.357 110.418 476.993C109.828 478.176 109.737 478.949 109.919 479.404C109.964 479.586 110.055 479.767 110.191 479.858L110.237 479.904C110.328 479.995 110.464 480.04 110.555 480.086C110.6 480.086 110.6 480.131 110.645 480.131C110.736 480.177 110.827 480.177 110.918 480.177H110.963C111.009 480.177 111.099 480.177 111.099 480.177C111.099 480.177 119.907 495.23 110.101 512.558C106.196 502.416 99.7946 497.322 99.7946 497.322L101.384 493.911L99.3406 495.276L93.2115 486.862L94.5735 484.133L92.3035 484.816L81.9974 475.401L81.6342 475.038L82.9962 470.262L80.2722 473.446C80.2722 473.446 77.7751 470.945 75.7321 470.035C75.7321 467.761 75.7321 467.761 75.7321 467.761L74.143 469.125C74.143 469.125 65.5168 462.758 60.9767 461.621C60.5227 458.438 60.5227 458.438 60.5227 458.438L59.3877 460.03C59.3877 460.03 55.6648 458.301 50.8977 457.983C50.4891 457.938 50.035 457.938 49.581 457.938C49.4448 457.938 49.354 457.938 49.2178 457.938C48.7638 457.938 48.2644 457.938 47.8104 457.983C46.6754 455.482 46.6754 455.482 46.6754 455.482L45.9944 457.301C45.9944 457.301 44.4053 457.255 42.1353 457.255C42.4077 457.346 42.7255 457.392 42.9979 457.528C43.1341 457.574 43.2249 457.619 43.3611 457.619C43.6789 457.71 44.0421 457.847 44.4053 457.983C44.4507 457.983 44.4961 458.028 44.5415 458.028C48.2644 459.575 52.1689 462.667 55.4832 468.58C53.6671 468.762 53.6671 468.762 53.6671 468.762L56.6636 470.581L56.0734 471.991C56.0734 471.991 60.8859 481.223 61.8847 487.044C59.2969 487.635 59.2969 487.635 59.2969 487.635L61.7031 489.227L60.5227 489.409C60.5227 489.409 60.9767 489.682 61.5215 490.455C61.5215 490.455 61.5215 490.455 61.5215 490.501C61.7485 490.864 62.0209 491.319 62.2479 491.956C62.2479 492.001 62.2933 492.047 62.2933 492.092C62.3841 492.365 62.4749 492.638 62.5658 492.956C62.5658 493.047 62.6112 493.138 62.6112 493.229C62.702 493.548 62.7474 493.911 62.7928 494.275C62.7928 494.366 62.8382 494.412 62.8382 494.503C62.8836 494.957 62.9744 495.458 62.9744 496.003C62.9744 496.049 62.9744 496.094 62.9744 496.094C62.9744 496.595 63.0198 497.14 62.9744 497.686C62.9744 497.823 62.9744 498.005 62.9744 498.186C62.9744 498.687 62.929 499.187 62.8836 499.778C62.8836 499.96 62.8382 500.142 62.8382 500.324C62.7474 501.006 62.702 501.688 62.5658 502.461C62.5658 502.552 62.5657 502.598 62.5203 502.689C61.1129 502.871 61.1129 502.871 61.1129 502.871L62.929 506.1L61.3399 506.691C61.3399 506.691 60.4773 518.243 56.3912 528.839C56.9814 531.341 57.2992 532.523 57.2992 532.523L58.298 529.931C58.298 529.931 60.2503 531.704 62.5203 535.525C62.4749 534.57 62.4296 533.66 62.3841 532.751C62.3841 532.66 62.3841 532.614 62.3841 532.523C62.3841 531.886 62.3841 531.295 62.3841 530.704C62.3841 530.658 62.3841 530.613 62.3841 530.568C62.3841 529.976 62.4296 529.431 62.4749 528.885C62.4749 528.839 62.4749 528.839 62.4749 528.794C62.5203 528.248 62.5658 527.702 62.6112 527.202C62.6112 527.157 62.6112 527.111 62.6112 527.066C62.702 526.02 62.8382 525.11 62.929 524.291V524.246C63.2468 521.972 63.61 520.562 63.61 520.562H66.3794L64.1094 519.425L67.0605 512.058L68.6949 511.557L68.3771 510.102L70.3293 505.19L72.4632 505.509C72.4632 505.509 72.4632 505.509 71.646 503.053C78.3653 492.092 91.8948 488.499 91.8948 488.499L90.5782 497.322H88.1266L89.9426 499.278L87.3093 508.783L84.2221 508.965L86.4921 511.102L84.6761 517.333L82.2244 517.97C82.2244 517.97 82.2244 517.97 83.9043 519.516C83.9497 519.562 83.9497 519.562 83.9951 519.607C81.0894 523.973 80.0906 531.568 79.7274 535.206C79.7274 535.343 79.7274 535.434 79.682 535.57C82.4968 533.387 84.7669 532.205 84.7669 532.205L84.2675 530.249L87.5363 531.25C87.5363 531.25 87.5363 531.25 86.7191 529.431C87.1731 529.112 87.6725 528.794 88.2174 528.521C88.4898 528.385 88.7622 528.248 89.0346 528.112C89.307 527.975 89.534 527.839 89.8064 527.702C89.8518 527.702 89.8518 527.657 89.8972 527.657C90.0788 527.566 90.3058 527.475 90.5328 527.384C90.896 527.202 91.2592 527.066 91.6224 526.929C91.8494 526.838 92.1218 526.747 92.3489 526.656C92.7121 526.52 93.0299 526.383 93.3931 526.292C93.6655 526.202 93.9833 526.111 94.2557 526.02C94.5735 525.929 94.8913 525.792 95.2091 525.701C95.5269 525.61 95.8447 525.519 96.1625 525.428C96.4349 525.337 96.7074 525.246 96.9798 525.201C97.343 525.11 97.7062 525.019 98.0694 524.928C98.2964 524.883 98.5234 524.837 98.705 524.746C99.1136 524.655 99.5222 524.564 99.9308 524.473C100.022 524.473 100.112 524.428 100.203 524.428C105.152 523.336 109.238 522.973 109.238 522.973L113.824 525.929C113.824 525.929 113.324 525.292 112.689 523.291C116.593 523.291 120.543 524.61 120.543 524.61L122.677 528.203L122.359 525.428L131.031 527.702L133.482 531.795C133.482 531.795 133.482 531.795 133.8 528.839C140.02 533.433 148.328 544.075 149.009 554.035C147.193 551.579 141.836 549.76 141.836 549.76L141.2 545.53L140.202 549.123L137.251 548.714L135.798 544.12L135.48 547.713L127.126 545.894L126.309 539.027L124.493 543.756L120.588 542.756L119.771 539.163L119.135 543.256L110.963 543.893L109.147 540.482L109.465 544.393L103.926 545.394L100.657 540.8C100.657 540.8 100.657 540.8 101.474 546.531C99.4314 546.758 94.2103 548.532 91.6678 549.441C91.5316 549.487 91.3954 549.532 91.2592 549.578C91.5316 549.669 91.8494 549.714 92.1218 549.805L92.031 549.623C92.031 549.623 111.781 546.212 129.941 561.22C129.623 563.176 129.623 563.176 129.623 563.176L132.393 563.494L131.757 564.95L137.977 569.225L137.478 570.362C137.478 570.362 139.112 571.681 140.883 575.091C140.883 575.091 140.883 575.137 140.928 575.137C141.064 575.41 141.246 575.728 141.382 576.047C141.427 576.092 141.427 576.137 141.473 576.183C141.609 576.501 141.745 576.82 141.927 577.183C141.927 577.229 141.972 577.274 141.972 577.274C142.29 578.048 142.608 578.866 142.926 579.821C142.971 579.912 142.971 580.049 143.016 580.14C143.107 580.503 143.243 580.867 143.334 581.231C143.38 581.368 143.425 581.504 143.47 581.64C143.561 582.004 143.697 582.414 143.788 582.823C143.834 582.959 143.834 583.096 143.879 583.232C144.015 583.778 144.151 584.324 144.242 584.915V584.96C144.333 585.506 144.469 586.097 144.56 586.643C144.605 586.825 144.605 587.052 144.651 587.234C144.696 587.644 144.787 588.098 144.833 588.553C144.878 588.781 144.878 589.008 144.923 589.281C144.969 589.736 145.014 590.19 145.06 590.691C145.105 590.918 145.105 591.146 145.105 591.373C145.15 592.055 145.241 592.783 145.287 593.556C145.287 593.647 145.287 593.692 145.287 593.783C145.332 594.466 145.332 595.148 145.377 595.875C145.377 596.148 145.377 596.421 145.377 596.694C145.377 597.24 145.377 597.785 145.377 598.331C145.377 598.65 145.377 598.968 145.377 599.286C145.377 599.878 145.377 600.469 145.332 601.06C145.332 601.378 145.332 601.651 145.287 601.97C145.287 602.561 145.241 603.152 145.196 603.743C145.196 603.789 145.196 603.834 145.196 603.834C145.196 604.425 145.15 604.744 145.15 604.744C145.15 604.744 145.15 604.607 145.15 604.425C145.15 604.516 145.15 604.653 145.15 604.744C144.696 603.834 144.197 602.97 143.743 602.106C143.607 601.879 143.47 601.651 143.334 601.424C142.971 600.787 142.653 600.196 142.29 599.605C142.154 599.423 142.063 599.195 141.927 599.013C141.019 597.513 140.111 596.148 139.294 594.92C139.203 594.784 139.112 594.647 139.021 594.511C138.658 594.011 138.34 593.556 138.022 593.147C137.932 593.01 137.841 592.919 137.75 592.783C136.933 591.691 136.161 590.782 135.434 589.918C135.389 589.827 135.298 589.781 135.253 589.69C134.935 589.372 134.663 589.008 134.345 588.735C134.299 588.69 134.209 588.599 134.163 588.553C133.482 587.871 132.892 587.28 132.347 586.78C132.302 586.734 132.256 586.689 132.211 586.643C131.984 586.461 131.802 586.279 131.621 586.143C131.575 586.097 131.485 586.052 131.439 586.006C131.258 585.825 131.031 585.688 130.849 585.552L130.804 585.506C129.986 584.869 129.532 584.642 129.532 584.642L131.348 581.549L129.215 582.868C129.215 582.868 121.36 576.638 118.273 575.501L118.772 571.908L117.456 574.045L116.457 572.408L115.821 572.908L108.466 569.861C109.011 570.225 109.692 570.725 110.6 571.408C112.189 576.82 112.325 590.827 112.325 592.555C112.325 592.692 112.325 592.737 112.325 592.737L109.874 591.646C109.874 591.646 109.874 591.646 112.189 596.694C112.28 600.787 110.418 607.473 109.828 609.519C109.692 609.928 109.647 610.156 109.647 610.156L107.558 609.292L109.011 611.52L108.148 615.431L105.924 614.431C105.924 614.431 105.924 614.431 107.513 616.887C106.786 622.026 102.246 629.257 102.246 629.257L99.9308 629.393C99.9308 629.393 99.9308 629.393 101.157 631.622C98.705 637.625 86.9915 649.723 86.9915 649.723C87.7179 647.13 88.7168 639.854 88.7168 639.854L90.3058 639.444L88.7168 637.58L89.7156 636.443L87.4455 636.852L88.8984 623.117L91.6224 621.98L89.4886 620.389L92.4851 618.524L87.4909 618.251L86.9461 604.971L87.8088 603.379L86.4013 602.106L88.8076 599.968H85.0847L81.5434 586.507L83.1324 583.914L80.8624 584.642L77.4573 575.91L79.5912 572.044L75.3235 574.455L70.8287 568.224C69.4667 571.862 66.8789 578.821 65.8346 582.595C65.4714 582.414 65.199 582.277 64.8812 582.141C64.745 582.505 64.6088 582.959 64.4272 583.414C64.4272 583.46 64.3818 583.551 64.3818 583.596C62.5658 589.008 59.6601 598.559 59.6601 604.835C58.9791 604.607 58.4342 604.471 57.9348 604.289C57.9348 604.425 57.8894 604.516 57.8894 604.653C57.8894 604.789 57.844 604.926 57.844 605.062C57.7986 605.244 57.7986 605.471 57.7532 605.653C57.7078 605.926 57.6624 606.245 57.617 606.517C56.7544 612.748 55.3924 623.663 55.7556 631.44C55.2562 631.485 54.8476 631.531 54.4844 631.576C54.4844 632.531 54.5298 633.714 54.5752 635.078C54.7568 642.582 55.3016 655.089 56.7544 661.047C56.2096 661.183 55.7102 661.274 55.3016 661.365L57.4354 688.38H56.2096L57.7986 695.383C57.8894 695.52 57.8894 695.611 57.8894 695.611C57.8894 695.611 57.8894 691.518 61.9755 685.787C59.5239 690.699 60.3411 695.747 60.3411 695.747C60.3411 695.747 61.3399 689.699 65.7438 688.88C62.7928 690.335 61.1583 698.84 61.1583 698.84C62.7928 693.792 69.4667 692.609 69.4667 692.609C69.4667 692.609 61.7939 698.84 62.1117 703.251C63.9278 698.521 68.6495 697.703 68.6495 697.703C68.6495 697.703 65.0628 700.795 64.064 706.389C64.1094 706.253 64.2002 706.071 64.291 705.889C64.3364 705.798 64.3818 705.707 64.4272 705.616C64.4726 705.525 64.518 705.434 64.5634 705.343C64.6088 705.207 64.6996 705.116 64.7904 704.979C64.8358 704.889 64.8812 704.798 64.9266 704.707C65.0174 704.57 65.1082 704.434 65.199 704.297C65.2444 704.206 65.3352 704.115 65.3806 704.024C65.4714 703.888 65.6076 703.752 65.6984 703.57C65.7438 703.479 65.8346 703.388 65.88 703.297C66.0162 703.16 66.107 703.024 66.2432 702.842C66.334 702.751 66.3794 702.66 66.4702 702.569C66.6064 702.433 66.7426 702.296 66.8789 702.114C66.9697 702.023 67.0605 701.932 67.1059 701.887C67.2421 701.75 67.4237 701.614 67.5599 701.478C67.6507 701.387 67.7415 701.341 67.8323 701.25C68.0139 701.114 68.1501 700.977 68.3317 700.841C68.4225 700.75 68.5133 700.704 68.6041 700.614C68.7857 700.477 68.9673 700.341 69.1489 700.25C69.2397 700.204 69.3305 700.113 69.4213 700.068C69.6029 699.931 69.7845 699.84 70.0115 699.749C70.1023 699.704 70.1931 699.658 70.2839 699.613C70.5109 699.522 70.6925 699.431 70.9195 699.34C71.0103 699.295 71.0557 699.295 71.1466 699.249C72.0092 698.931 72.8718 698.749 73.8252 698.794H73.8706C74.0976 698.794 74.37 698.84 74.597 698.885C74.6878 698.885 74.824 698.885 74.9148 698.931C75.3689 699.022 75.8229 699.113 76.2769 699.295C69.8753 699.295 67.1059 705.389 66.1978 708.072C69.5575 708.209 74.5062 708.663 80.7716 709.891C93.1661 712.302 70.3293 710.164 52.2143 711.619C34.0993 713.12 9.12869 714.757 15.2124 712.711C21.2962 710.664 18.2089 710.801 3.27194 711.528C-9.89438 712.165 -0.269348 708.39 11.3987 707.344C9.03787 706.207 5.996 705.025 3.77135 705.252C6.85863 704.252 9.8551 704.525 11.3533 704.798C11.3533 704.57 11.3079 704.388 11.3079 704.161C9.17409 702.615 4.40697 699.431 0.593277 699.295C6.63162 698.794 10.2183 699.931 10.2183 699.931C10.2183 699.931 5.81439 695.02 0.275467 694.519C0.275467 694.519 5.13339 693.519 10.6723 695.383C10.6269 694.792 10.5815 694.246 10.5815 693.655C7.53964 690.699 4.08917 687.879 4.08917 687.879C4.08917 687.879 7.31264 687.697 10.3999 690.062C10.3545 689.38 10.3545 688.698 10.3091 688.016C8.26605 684.196 6.13222 681.194 6.13222 681.194C6.13222 681.194 7.94826 681.876 10.2183 683.559C10.2183 681.922 10.2637 680.466 10.3545 679.238C9.80969 674.236 8.85628 664.185 8.58386 656.999C8.58386 656.954 8.58386 656.863 8.58386 656.817L8.17526 656.772C8.17526 656.772 6.13222 643.583 8.85628 632.941C8.94708 632.531 9.08328 632.122 9.21948 631.667C9.26488 631.44 9.35568 631.213 9.40108 631.031L6.49542 631.622C6.49542 631.622 5.7236 622.663 7.17644 613.931V613.885C7.17644 613.794 7.22183 613.703 7.22183 613.612C7.31264 613.203 7.35805 612.794 7.44884 612.384C7.44884 612.339 7.49425 612.248 7.49425 612.202L6.26842 612.066L3.99835 611.838C3.99835 611.838 4.13455 608.155 4.40697 603.516C4.40697 603.425 4.40697 603.334 4.40697 603.243C4.45236 602.697 4.49777 602.106 4.54318 601.515C4.54318 601.287 4.58856 601.105 4.58856 600.878C4.63397 600.287 4.67938 599.696 4.72478 599.104C4.72478 598.922 4.77019 598.786 4.77019 598.604C4.81558 597.967 4.86098 597.331 4.95178 596.694C4.95178 596.558 4.95178 596.467 4.99719 596.33C5.08798 595.602 5.13339 594.875 5.2242 594.193C5.2242 594.147 5.2242 594.147 5.2242 594.102C5.31499 593.374 5.40579 592.646 5.49658 592.01C5.49658 591.964 5.49658 591.919 5.49658 591.873C5.58739 591.236 5.67819 590.645 5.769 590.1C5.81439 589.963 5.81441 589.827 5.8598 589.69C5.8598 589.599 5.90521 589.508 5.90521 589.417C5.95061 589.235 5.95061 589.054 5.996 588.872C5.996 588.781 6.04141 588.69 6.04141 588.599C6.08681 588.417 6.13222 588.28 6.13222 588.144C6.17761 588.053 6.1776 587.962 6.1776 587.871C6.1776 587.826 6.17761 587.78 6.22301 587.735L5.90521 587.598L3.77135 586.734C3.77135 586.734 3.77136 586.097 3.81676 585.006C2.95413 585.552 2.04611 586.234 1.13809 586.961C0.956497 587.098 0.774887 587.28 0.593277 587.416C0.275467 587.644 0.00306702 587.917 -0.314743 588.189C-0.541748 588.371 -0.768753 588.553 -0.950363 588.781C-1.26816 589.054 -1.54057 589.326 -1.85838 589.599C-2.08539 589.827 -2.31239 590.054 -2.5394 590.281C-2.85721 590.554 -3.12961 590.873 -3.44742 591.191C-3.67442 591.418 -3.90143 591.646 -4.12843 591.919C-4.44624 592.237 -4.76405 592.601 -5.08186 592.965C-5.30887 593.192 -5.53587 593.465 -5.76288 593.738C-6.12608 594.147 -6.48929 594.602 -6.85249 595.011C-7.0341 595.239 -7.21571 595.466 -7.39731 595.693C-7.94212 596.376 -8.48694 597.103 -9.03175 597.876C-10.3484 596.057 -10.3484 596.057 -10.3484 596.057L-10.8478 597.876C-10.8478 597.876 -14.9339 596.876 -17.3856 604.107C-17.3856 604.107 -21.6533 593.965 -18.0212 578.593C-16.2051 578.912 -16.2051 578.912 -16.2051 578.912L-16.5229 576.456C-16.5229 576.456 -16.4321 576.365 -16.2959 576.183L-16.2505 576.137C-16.2051 576.047 -16.1143 575.956 -16.0235 575.819C-14.8431 574.227 -11.8466 570.316 -10.1668 569.27C-8.85016 570.907 -8.85014 570.907 -8.85014 570.907V568.133C-8.85014 568.133 -1.81297 561.584 0.457077 559.947C1.0927 562.084 1.90991 562.903 1.90991 562.903L1.5921 558.492L4.49777 557.264C4.58858 553.716 4.90639 548.35 5.6328 542.847C5.4512 542.892 5.22418 542.938 5.04257 543.029C3.68054 540.8 3.68054 540.345 3.68054 540.345V542.801C3.68054 542.801 -0.0423431 543.574 -4.21924 545.257C-4.53705 545.394 -4.90025 545.53 -5.21806 545.667C-5.35426 545.712 -5.53586 545.803 -5.67207 545.894C-5.98987 546.03 -6.26228 546.167 -6.58009 546.303C-6.76169 546.394 -6.98871 546.485 -7.1703 546.576C-7.44272 546.713 -7.71512 546.849 -7.98752 546.985C-8.21452 547.122 -8.44153 547.213 -8.62314 547.349C-8.85014 547.486 -9.12256 547.622 -9.34956 547.759C-9.57657 547.895 -9.80357 548.077 -10.0306 548.213C-10.2576 548.35 -10.4392 548.486 -10.6662 548.623C-10.8932 548.805 -11.1656 548.987 -11.3926 549.168C-11.5742 549.305 -11.7558 549.441 -11.892 549.578C-12.1644 549.805 -12.3914 550.033 -12.6638 550.26C-12.8 550.396 -12.9362 550.487 -13.0271 550.624C-13.3903 550.988 -13.7081 551.351 -14.0259 551.761C-13.7989 548.805 -13.3902 547.713 -13.3902 547.713C-13.3902 547.713 -16.7045 553.216 -16.9315 554.853C-16.9315 554.853 -17.3401 552.579 -17.0223 549.077C-17.1131 549.396 -17.1586 549.578 -17.1586 549.578C-17.1586 549.578 -17.1131 549.396 -17.0223 549.032C-16.5229 543.984 -14.4345 536.343 -7.1703 528.976C-4.71866 529.476 -4.71866 529.476 -4.71866 529.476L-5.30887 528.021C-5.30887 528.021 -5.26347 527.975 -5.17267 527.93C-5.17267 527.93 -5.12726 527.93 -5.12726 527.884C-5.03645 527.793 -4.90025 527.702 -4.71866 527.611C-4.67325 527.611 -4.67325 527.566 -4.62785 527.566C-4.21924 527.293 -3.62903 526.884 -2.85721 526.429C-2.81181 526.429 -2.8118 526.383 -2.8118 526.383C-0.269348 524.792 3.90755 522.472 8.22066 521.199C8.99248 516.514 9.9913 510.921 11.2625 505.463C11.2625 505.418 11.2625 505.418 11.3079 505.372C11.4895 504.644 11.6257 503.962 11.8073 503.235C11.8981 502.916 11.9436 502.598 12.0343 502.28C12.0343 502.234 12.0343 502.189 12.0797 502.189C12.1252 502.098 12.1252 502.007 12.1705 501.916L11.8527 501.688L10.6723 500.824C10.6723 500.824 15.5756 486.271 18.7083 478.903C18.7083 478.903 18.7083 478.858 18.7537 478.858C18.9807 478.358 19.2077 477.857 19.3893 477.403L17.9819 476.766L19.8433 473.309C19.3439 473.582 18.8899 473.764 18.4813 473.855C16.5291 470.399 16.5291 470.399 16.5291 470.399L16.7561 474.81L13.578 477.994L10.8993 475.038L12.1252 478.676C12.1252 478.676 5.95059 485.771 2.77252 490.728C2.59091 491.001 2.40933 491.319 2.27312 491.592C2.22772 491.683 2.1369 491.819 2.09151 491.91C1.9099 492.274 1.7283 492.593 1.54671 492.911C-0.269348 491.865 -0.904953 491.592 -0.904953 491.592L-0.133148 493.775C-0.133148 493.775 -3.22041 499.051 -4.76404 502.598C-4.85484 502.78 -4.90025 502.962 -4.99104 503.144C-5.03645 503.235 -5.08186 503.326 -5.12726 503.462C-5.17267 503.598 -5.21806 503.735 -5.26346 503.871C-5.30885 504.008 -5.35426 504.099 -5.35426 504.19C-5.39967 504.281 -5.44507 504.417 -5.44507 504.508C-5.49046 504.69 -5.53587 504.872 -5.58127 505.054C-9.07715 502.916 -10.4846 502.507 -10.4846 502.507L-8.85014 506.009C-8.85014 506.009 -18.793 513.604 -20.0188 522.518C-20.0188 522.518 -20.0188 522.472 -20.0188 522.381C-20.0188 522.336 -20.0188 522.336 -20.0188 522.29C-20.0188 522.199 -20.0642 522.108 -20.0642 521.926C-20.0642 521.836 -20.0642 521.79 -20.1096 521.654C-20.1096 521.517 -20.155 521.335 -20.155 521.153C-20.155 521.017 -20.2004 520.926 -20.2004 520.79C-20.2004 520.562 -20.2458 520.335 -20.2458 520.107C-20.2458 519.925 -20.2912 519.789 -20.2912 519.607C-20.2912 519.289 -20.3366 518.97 -20.3366 518.607C-20.3366 518.47 -20.3366 518.334 -20.382 518.197C-20.4274 517.697 -20.4274 517.151 -20.4274 516.605C-20.4274 516.424 -20.4274 516.242 -20.4274 516.014C-20.4274 515.605 -20.4274 515.196 -20.4274 514.741C-21.0176 514.513 -21.0176 514.241 -21.0176 513.968ZM69.0127 554.035C69.0127 553.944 69.0127 553.807 69.0127 553.716L68.6495 554.262C68.6495 554.262 68.6495 554.262 68.6495 554.217C68.6949 554.353 68.6949 554.535 68.7403 554.671C68.8765 554.853 68.9673 555.035 69.1035 555.217L69.1489 555.035C69.0581 554.717 69.0581 554.399 69.0127 554.035ZM68.3317 556.991C68.3771 557.036 68.4225 557.127 68.5133 557.173L68.8765 555.945L68.3317 556.991ZM33.3275 703.933C33.3275 704.206 33.3275 704.434 33.3275 704.616C33.3275 704.479 33.3728 704.252 33.4183 704.024L33.3275 703.933ZM29.423 453.526C29.196 454.208 29.0143 454.709 28.8781 455.118C28.7873 455.345 28.7419 455.573 28.6511 455.8L29.2868 454.618C29.2868 454.618 29.3322 454.663 29.3776 454.663C29.3776 454.663 29.3776 454.663 29.423 454.709C29.4684 454.754 29.5138 454.799 29.6046 454.89C29.5592 454.481 29.5138 454.072 29.4684 453.708C29.423 453.663 29.423 453.617 29.423 453.526ZM48.1282 514.286L49.3086 512.467L47.4926 513.058L46.3122 509.465L44.0875 502.825L45.6766 502.007L42.2715 500.188L40.0468 495.367L42.0445 493.548L38.4578 494.73L31.466 479.313L33.4637 475.902L30.2402 478.312L29.7408 477.403C29.2414 479.085 28.7873 480.632 28.5149 481.859C28.1517 481.678 27.8793 481.587 27.6069 481.405C27.5615 481.496 27.5615 481.541 27.5161 481.632C27.4253 481.905 27.3345 482.178 27.2437 482.496C27.1983 482.678 27.1529 482.815 27.1075 482.996C25.5185 488.454 23.0214 497.959 23.1122 504.19C22.4766 504.008 21.9318 503.826 21.4778 503.689C21.4324 504.008 21.387 504.372 21.3416 504.735C20.933 508.237 20.3427 513.831 20.0249 519.562C21.3416 519.607 22.7036 519.698 23.8386 519.88C25.6547 522.7 25.6547 522.7 25.6547 522.7L26.2903 520.38C26.2903 520.38 36.2331 520.517 43.1795 523.063C45.1317 526.02 45.6311 526.611 45.6311 526.611L46.1306 523.427C46.1306 523.427 50.1259 525.519 53.6217 527.293C50.7161 516.424 48.1282 514.286 48.1282 514.286ZM42.2715 544.893C42.2261 544.439 42.2261 544.12 42.1807 543.893C42.1353 543.438 42.1353 543.393 42.1353 543.393C42.1353 543.393 42.1353 543.393 42.1807 543.893C42.0899 543.893 41.9537 543.938 41.8629 543.938L41.1818 545.121L32.7372 544.757L32.8734 542.074L31.5114 544.029C31.5114 544.029 28.5603 543.529 25.1099 543.12C23.4754 542.983 21.2508 542.801 19.4801 542.71C19.5709 544.439 19.7071 546.167 19.8433 547.895L25.2915 546.804L28.7873 548.85L27.7885 546.576C27.7885 546.576 34.8257 545.394 40.6824 545.485C43.4065 547.759 43.4065 547.759 43.4065 547.759L43.0433 545.394C43.0433 545.394 47.8558 545.712 53.4401 546.94C53.5309 546.94 53.5763 546.985 53.6671 546.985C54.0303 547.076 54.439 547.167 54.8476 547.258C54.9838 547.304 55.12 547.304 55.2562 547.349C55.7102 547.486 56.1642 547.577 56.6182 547.713C56.709 547.713 56.7544 547.759 56.8452 547.759C57.2538 547.85 57.617 547.986 57.9802 548.122C58.1618 548.168 58.298 548.213 58.4797 548.304C58.7975 548.395 59.1153 548.532 59.4331 548.623C59.5693 548.668 59.7055 548.714 59.8871 548.759C60.2957 548.896 60.7497 549.077 61.1583 549.259C61.2945 549.305 61.4307 549.396 61.5669 549.441C61.7939 549.532 62.0209 549.623 62.2479 549.76C62.1117 549.669 61.9755 549.623 61.8393 549.532C61.7485 549.487 61.6123 549.396 61.4761 549.35C60.9313 549.077 60.3865 548.759 59.7963 548.486C55.5286 546.44 49.7172 544.711 42.2715 544.893ZM57.0722 567.678L54.8022 562.448L53.3493 566.86L47.4926 568.315L46.6754 563.585L45.3587 567.496L33.2821 573.363L31.1482 569.77L30.6488 572.863L26.5627 573.5L24.9283 570.407L24.7467 573.864L24.6104 573.954L21.6594 576.092L22.749 587.917L21.4324 587.962C21.4324 588.326 21.4324 588.69 21.4324 589.099V589.144C21.4324 589.417 21.4324 589.736 21.4778 590.054C21.6594 595.375 22.4766 604.334 25.6547 609.474C24.565 609.565 23.6116 609.656 22.8398 609.746C23.0214 612.794 23.884 621.844 26.9259 627.483C26.0633 627.665 25.2915 627.847 24.6558 627.984C24.8375 628.802 25.0191 629.848 25.2461 630.985C26.5627 637.443 29.0598 648.131 31.7384 652.997C30.9666 653.224 30.331 653.406 29.7408 653.588L30.331 655.817L36.6417 680.375L36.3693 680.421L36.7779 681.876C37.0503 677.192 37.5044 670.37 38.0946 665.231C38.1854 664.458 38.2762 663.73 38.367 663.048C38.367 662.957 38.367 662.911 38.4124 662.82C38.4578 662.639 38.4578 662.411 38.5032 662.229L37.6406 661.956C37.6406 661.956 37.7768 644.538 41.9537 632.759L40.5916 632.85C40.5916 632.85 42.6347 618.979 46.0852 606.017C46.0852 606.017 46.0852 606.017 46.0852 605.972C46.1306 605.881 46.1306 605.79 46.176 605.653C46.3576 605.017 46.5392 604.38 46.6754 603.743C46.7662 603.425 46.857 603.152 46.9478 602.834C46.9478 602.788 46.9932 602.697 46.9932 602.652C47.0386 602.561 47.0386 602.47 47.084 602.379L45.4949 601.196C45.4949 601.196 46.9024 597.467 48.8092 592.828C49.1724 591.919 49.581 590.918 49.9897 589.963C50.1713 589.463 50.3983 589.008 50.5799 588.508C50.6707 588.28 50.7615 588.098 50.8523 587.871C51.1247 587.234 51.3517 586.643 51.6241 586.052C51.6695 585.915 51.7149 585.779 51.8057 585.688C52.1235 585.006 52.3959 584.278 52.7137 583.642C52.7137 583.596 52.7591 583.551 52.7591 583.505C53.0769 582.823 53.3493 582.141 53.6671 581.504C53.7125 581.413 53.7125 581.368 53.7579 581.277C54.0303 580.685 54.3028 580.14 54.5298 579.594C54.5752 579.503 54.6206 579.457 54.6206 579.366C54.8476 578.866 55.0746 578.411 55.3016 578.002L53.8487 577.365L60.4773 566.269L57.0722 567.678ZM42.2715 707.663V707.708C42.3169 707.708 42.3623 707.708 42.4077 707.708C42.3623 707.663 42.3169 707.617 42.2715 707.663ZM34.7349 424.465C34.7349 424.692 34.7349 424.92 34.7349 425.147H35.3705C35.3251 425.193 35.3251 425.193 34.7349 424.465Z" fill="#010101" fill-opacity="0.15"/>
<path d="M266.5 629.5C265.7 678.3 315.834 678.833 326.5 675.5C346.834 674.167 385.1 658.7 375.5 607.5C363.5 543.5 387.5 473.5 367.5 426.5C360.334 408.167 326.1 371.5 246.5 371.5C147 371.5 29 346.5 26.5 252.5" stroke="#021689" stroke-width="3" stroke-dasharray="8 8"/>
<path d="M266.5 630C242.5 676 172.5 683 136 674C99.5002 665 81.6172 693.128 43.5001 681C21.5002 674 2.30017 674.4 21.5002 538" stroke="#021689" stroke-width="3" stroke-dasharray="8 8"/>
<path d="M27.0001 250.5C27.0001 218.833 46.0002 160.9 122 182.5C217 209.5 291 327.5 356.5 259.5C422 191.5 337 174 302 198.5" stroke="#021689" stroke-width="3" stroke-dasharray="8 8"/>
<path d="M419 234.991C419.059 246.562 412.769 256.71 403.454 262.11L240.4 263C237.077 258.49 235 252.853 235 246.8C234.941 231.549 247.223 219.087 262.473 219.028C268.05 218.969 273.212 220.63 277.603 223.419C281.045 212.441 291.31 204.43 303.473 204.311C303.355 181.049 322.105 162.119 345.305 162.001C368.565 161.882 387.493 180.634 387.611 203.836C404.819 203.836 418.94 217.722 419 234.991Z" fill="white" fill-opacity="0.2"/>
<path d="M126.631 205.336C121.886 205.336 117.434 206.681 113.743 209.021C114.622 206.798 115.149 204.4 115.149 201.885C115.149 191.357 106.596 182.875 96.1106 182.875C91.5999 182.875 87.4408 184.455 84.1603 187.087C82.11 172.347 69.4567 161 54.1087 161C37.3548 161 23.7642 174.57 23.7642 191.298C23.7642 192.117 23.8228 192.994 23.8814 193.813C22.2997 193.462 20.6595 193.287 18.9606 193.287C6.60025 193.287 -3.5341 202.587 -4.88144 214.519C-7.22465 213.583 -9.80217 213.057 -12.4969 213.057C-23.8028 213.057 -32.9999 222.181 -32.9999 233.528C-32.9999 244.817 -23.8614 254 -12.4969 254H126.689C140.104 254 151 243.121 151 229.726C150.942 216.215 140.046 205.336 126.631 205.336Z" fill="white" fill-opacity="0.2"/>
<g clip-path="url(#clip1_0_151)">
<path fill-rule="evenodd" clip-rule="evenodd" d="M286.707 208.314L300.875 215.6C300.941 215.634 301.015 215.632 301.08 215.595L302.516 214.766C302.576 214.731 302.613 214.675 302.622 214.609C302.63 214.544 302.609 214.479 302.561 214.431L292.776 204.661C292.707 204.592 292.604 204.578 292.518 204.628L286.7 207.94C286.63 207.98 286.591 208.05 286.592 208.13C286.593 208.209 286.636 208.277 286.707 208.314ZM285.614 206.422L286.388 190.509C286.392 190.434 286.431 190.371 286.495 190.334L287.932 189.504C287.991 189.47 288.058 189.466 288.12 189.491C288.181 189.516 288.227 189.567 288.244 189.632L291.814 202.995C291.84 203.089 291.8 203.186 291.714 203.235L285.937 206.617C285.866 206.658 285.787 206.657 285.718 206.616C285.648 206.573 285.612 206.502 285.614 206.422Z" fill="#021689"/>
<path fill-rule="evenodd" clip-rule="evenodd" d="M299.126 200.547L305.793 202.14C305.852 202.153 305.906 202.146 305.958 202.116L306.671 201.704C306.739 201.665 306.78 201.599 306.784 201.522C306.788 201.444 306.755 201.374 306.693 201.329L302.548 198.293C302.475 198.24 302.382 198.235 302.303 198.28L299.065 200.134C298.984 200.18 298.941 200.268 298.953 200.36C298.971 200.454 299.036 200.525 299.126 200.547ZM298.453 199.381L300.406 192.809C300.424 192.751 300.457 192.708 300.509 192.678L301.222 192.266C301.289 192.227 301.367 192.225 301.437 192.26C301.506 192.295 301.551 192.359 301.558 192.435L302.115 197.543C302.124 197.633 302.082 197.716 302.003 197.761L298.779 199.639C298.698 199.686 298.601 199.679 298.527 199.622C298.456 199.562 298.426 199.469 298.453 199.381Z" fill="#021689"/>
<path fill-rule="evenodd" clip-rule="evenodd" d="M300.454 197.939C300.47 197.93 300.485 197.921 300.5 197.913C300.52 197.901 300.54 197.89 300.56 197.878C300.58 197.867 300.599 197.855 300.619 197.844L300.679 197.809C300.699 197.798 300.719 197.787 300.738 197.775C300.758 197.764 300.778 197.752 300.798 197.741C300.818 197.729 300.838 197.718 300.856 197.707C300.896 197.684 300.934 197.662 300.972 197.64C300.992 197.629 301.01 197.618 301.03 197.607C301.05 197.595 301.068 197.585 301.088 197.573C301.126 197.551 301.164 197.529 301.203 197.509C301.222 197.498 301.242 197.487 301.261 197.478C301.279 197.467 301.299 197.456 301.318 197.446C301.337 197.436 301.356 197.427 301.376 197.415C301.394 197.405 301.413 197.396 301.431 197.385C301.469 197.366 301.506 197.346 301.544 197.326C301.563 197.317 301.582 197.307 301.601 197.298C301.62 197.288 301.638 197.278 301.656 197.27C301.692 197.251 301.73 197.233 301.767 197.216C301.785 197.207 301.804 197.198 301.822 197.19C301.839 197.182 301.859 197.173 301.876 197.165C301.894 197.157 301.913 197.148 301.931 197.139C301.949 197.131 301.966 197.123 301.985 197.116C302.002 197.108 302.021 197.102 302.039 197.093C302.056 197.085 302.075 197.079 302.093 197.07C302.111 197.064 302.129 197.056 302.146 197.05C302.164 197.043 302.181 197.036 302.199 197.029C302.218 197.023 302.235 197.017 302.253 197.01C302.27 197.004 302.289 196.998 302.306 196.992C302.323 196.986 302.341 196.98 302.358 196.974C302.375 196.968 302.392 196.962 302.41 196.958C302.427 196.952 302.445 196.948 302.462 196.942C302.497 196.932 302.531 196.923 302.566 196.914C302.584 196.91 302.601 196.907 302.619 196.903C302.687 196.887 302.755 196.875 302.822 196.867C302.839 196.865 302.856 196.863 302.871 196.86C302.904 196.858 302.939 196.854 302.971 196.853C303.469 196.828 303.779 196.923 303.893 197.139C303.993 197.329 303.941 197.613 303.725 197.987C303.709 198.015 303.691 198.043 303.674 198.071C303.656 198.1 303.637 198.127 303.618 198.154C303.608 198.168 303.598 198.182 303.588 198.194C303.546 198.248 303.503 198.3 303.455 198.352C303.443 198.365 303.432 198.378 303.419 198.391C303.395 198.417 303.369 198.442 303.343 198.467C303.33 198.481 303.317 198.492 303.303 198.504C303.29 198.516 303.277 198.53 303.264 198.541C303.25 198.553 303.237 198.565 303.221 198.578C303.208 198.59 303.193 198.603 303.179 198.614C303.166 198.626 303.151 198.639 303.136 198.652C303.121 198.664 303.106 198.675 303.091 198.688C303.076 198.7 303.062 198.711 303.047 198.723C303.032 198.736 303.016 198.747 303 198.759C302.984 198.77 302.969 198.782 302.953 198.794C302.937 198.805 302.922 198.818 302.906 198.829C302.89 198.84 302.874 198.851 302.857 198.863C302.841 198.875 302.824 198.887 302.808 198.898C302.792 198.909 302.774 198.921 302.758 198.933C302.725 198.956 302.691 198.978 302.656 199.002C302.639 199.014 302.622 199.024 302.604 199.036C302.587 199.048 302.569 199.058 302.551 199.071C302.515 199.093 302.48 199.116 302.444 199.139C302.425 199.149 302.408 199.161 302.39 199.172C302.371 199.182 302.354 199.194 302.334 199.206C302.316 199.217 302.298 199.229 302.278 199.24C302.26 199.251 302.24 199.262 302.223 199.274C302.185 199.296 302.147 199.32 302.109 199.342C302.089 199.353 302.071 199.364 302.051 199.375C302.031 199.387 302.013 199.397 301.993 199.409C301.955 199.431 301.915 199.454 301.877 199.476C301.857 199.487 301.837 199.499 301.819 199.509C301.799 199.521 301.779 199.532 301.76 199.544C301.74 199.555 301.72 199.567 301.7 199.578L301.64 199.612C301.621 199.624 301.601 199.635 301.581 199.647C301.561 199.658 301.541 199.67 301.521 199.681C301.506 199.69 301.491 199.699 301.476 199.708L301.657 200.021C301.787 200.247 301.709 200.531 301.489 200.672L287.87 209.292C287.867 209.294 287.865 209.295 287.862 209.296C287.813 209.325 287.763 209.354 287.714 209.382C287.665 209.41 287.616 209.438 287.568 209.467C287.519 209.495 287.47 209.523 287.421 209.551L287.274 209.636C287.226 209.664 287.177 209.692 287.129 209.72C287.08 209.748 287.033 209.775 286.984 209.803C286.935 209.832 286.888 209.859 286.839 209.887C286.743 209.943 286.647 209.998 286.552 210.053C286.505 210.08 286.457 210.107 286.41 210.135C286.363 210.162 286.315 210.189 286.267 210.215C286.172 210.268 286.079 210.322 285.985 210.374C285.937 210.402 285.891 210.427 285.844 210.452C285.797 210.476 285.75 210.504 285.703 210.529C285.656 210.554 285.611 210.58 285.564 210.605C285.517 210.63 285.471 210.655 285.424 210.68C285.331 210.73 285.239 210.779 285.147 210.825C285.102 210.849 285.055 210.873 285.01 210.897C284.964 210.919 284.918 210.943 284.872 210.966C284.781 211.012 284.691 211.056 284.599 211.099C284.555 211.121 284.509 211.143 284.463 211.163C284.419 211.185 284.373 211.205 284.328 211.225C284.283 211.245 284.238 211.267 284.194 211.286C284.149 211.306 284.105 211.326 284.061 211.345C284.017 211.364 283.972 211.382 283.927 211.402C283.883 211.421 283.839 211.439 283.794 211.457C283.749 211.474 283.706 211.491 283.661 211.509C283.618 211.526 283.573 211.543 283.529 211.559C283.486 211.576 283.442 211.591 283.398 211.606C283.354 211.621 283.311 211.636 283.267 211.651C283.223 211.667 283.18 211.681 283.137 211.694C283.094 211.708 283.051 211.721 283.007 211.734C282.964 211.747 282.92 211.76 282.878 211.772C282.793 211.797 282.708 211.819 282.623 211.84C282.58 211.851 282.539 211.861 282.495 211.87C279.352 212.572 278.25 210.663 280.429 208.291C280.458 208.26 280.488 208.227 280.518 208.195C280.579 208.131 280.641 208.069 280.705 208.008C280.738 207.977 280.77 207.946 280.802 207.915C280.835 207.884 280.869 207.854 280.902 207.823C280.936 207.794 280.97 207.762 281.004 207.732C281.039 207.701 281.073 207.672 281.108 207.641C281.144 207.611 281.18 207.582 281.215 207.551C281.251 207.522 281.287 207.492 281.324 207.462C281.361 207.433 281.398 207.403 281.436 207.373C281.474 207.343 281.512 207.315 281.55 207.285C281.589 207.256 281.626 207.227 281.666 207.197C281.705 207.169 281.745 207.14 281.784 207.111C281.824 207.082 281.862 207.054 281.903 207.026C281.944 206.997 281.985 206.969 282.025 206.94C282.066 206.912 282.106 206.883 282.148 206.854C282.232 206.798 282.315 206.741 282.4 206.684C282.443 206.656 282.486 206.629 282.529 206.6C282.571 206.571 282.615 206.544 282.66 206.516C282.747 206.46 282.836 206.405 282.924 206.35C282.969 206.322 283.014 206.294 283.059 206.266C283.104 206.238 283.148 206.21 283.194 206.183C283.239 206.155 283.285 206.129 283.331 206.1C283.376 206.072 283.424 206.045 283.469 206.017C283.561 205.961 283.655 205.905 283.748 205.851C283.795 205.824 283.843 205.797 283.889 205.768C283.936 205.741 283.984 205.713 284.031 205.686C284.126 205.631 284.222 205.576 284.318 205.52C284.365 205.493 284.414 205.465 284.463 205.437C284.512 205.408 284.559 205.381 284.608 205.353C284.657 205.325 284.706 205.296 284.753 205.269L284.9 205.184C284.949 205.156 284.998 205.128 285.046 205.1C285.095 205.072 285.144 205.043 285.193 205.015C285.242 204.987 285.291 204.959 285.341 204.93C285.344 204.928 285.346 204.927 285.349 204.925L299.623 197.441C299.854 197.319 300.14 197.394 300.271 197.621L300.454 197.939ZM287.867 209.287C287.864 209.289 287.863 209.29 287.86 209.292L287.867 209.287Z" fill="#021689"/>
</g>
<g clip-path="url(#clip2_0_151)">
<path fill-rule="evenodd" clip-rule="evenodd" d="M23.0163 525.045L8.38373 531.347C8.31465 531.376 8.26923 531.435 8.25702 531.508L7.98361 533.144C7.97228 533.212 7.99187 533.276 8.03719 533.325C8.08251 533.373 8.14606 533.398 8.2131 533.392L21.9757 532.052C22.0734 532.043 22.1495 531.972 22.1657 531.874L23.3088 525.278C23.3222 525.198 23.2937 525.123 23.2307 525.074C23.1695 525.024 23.0892 525.014 23.0163 525.045ZM25.1711 525.405L36.9603 536.121C37.016 536.172 37.0399 536.242 37.0277 536.315L36.7543 537.951C36.743 538.019 36.7036 538.073 36.6449 538.105C36.5863 538.136 36.5181 538.139 36.4568 538.111L23.8739 532.369C23.7843 532.329 23.7356 532.237 23.7519 532.139L24.8152 525.53C24.8286 525.45 24.8798 525.388 24.9555 525.362C25.033 525.335 25.1104 525.352 25.1711 525.405Z" fill="#021689"/>
<path fill-rule="evenodd" clip-rule="evenodd" d="M21.1135 539.569L15.6441 543.701C15.5969 543.738 15.5677 543.785 15.5578 543.844L15.4221 544.656C15.4093 544.733 15.4344 544.807 15.4916 544.859C15.5487 544.912 15.6239 544.932 15.6984 544.912L20.6769 543.643C20.7645 543.62 20.8275 543.552 20.8426 543.462L21.4713 539.784C21.4867 539.692 21.4464 539.603 21.3672 539.554C21.284 539.508 21.1869 539.513 21.1135 539.569ZM22.4414 539.791L26.2721 545.477C26.3047 545.527 26.317 545.581 26.3072 545.64L26.1715 546.452C26.1587 546.529 26.111 546.591 26.0398 546.622C25.9687 546.653 25.8913 546.647 25.8272 546.604L21.5315 543.786C21.4561 543.736 21.4187 543.651 21.4338 543.561L22.0347 539.878C22.0501 539.786 22.1172 539.715 22.208 539.695C22.2999 539.678 22.39 539.714 22.4414 539.791Z" fill="#021689"/>
<path fill-rule="evenodd" clip-rule="evenodd" d="M22.2813 542.252C22.2784 542.27 22.2755 542.287 22.2726 542.305C22.2688 542.327 22.2651 542.35 22.2613 542.372C22.2575 542.395 22.2537 542.418 22.2499 542.44L22.2386 542.508C22.2348 542.531 22.2311 542.553 22.2273 542.576C22.2235 542.599 22.2197 542.621 22.2159 542.644C22.2122 542.666 22.2084 542.689 22.2049 542.71C22.1974 542.755 22.1901 542.798 22.1828 542.842C22.179 542.865 22.1756 542.885 22.1718 542.908C22.168 542.931 22.1645 542.952 22.1607 542.974C22.1535 543.018 22.1462 543.061 22.1372 543.104C22.1337 543.125 22.13 543.148 22.1247 543.168C22.1212 543.189 22.1175 543.212 22.1122 543.232C22.1088 543.253 22.1035 543.274 22.0998 543.296C22.0963 543.317 22.0911 543.338 22.0876 543.359C22.0789 543.4 22.0702 543.442 22.0615 543.483C22.0562 543.504 22.0527 543.525 22.0475 543.545C22.0423 543.566 22.0388 543.587 22.0339 543.605C22.0255 543.645 22.015 543.686 22.0049 543.726C22 543.745 21.9947 543.765 21.9898 543.784C21.9849 543.803 21.9797 543.823 21.9747 543.842C21.9698 543.861 21.9646 543.882 21.9596 543.9C21.9547 543.919 21.9498 543.938 21.9431 543.957C21.9382 543.976 21.9315 543.994 21.9266 544.013C21.9217 544.032 21.915 544.05 21.9101 544.069C21.9034 544.088 21.8985 544.107 21.8921 544.123C21.8854 544.142 21.8808 544.159 21.8741 544.178C21.8675 544.196 21.8611 544.213 21.8544 544.231C21.8481 544.248 21.8414 544.267 21.835 544.284C21.8287 544.3 21.822 544.319 21.8156 544.336C21.8093 544.353 21.8029 544.369 21.7948 544.386C21.7884 544.403 21.7803 544.419 21.7739 544.436C21.7595 544.469 21.7453 544.501 21.7291 544.534C21.7209 544.551 21.7131 544.565 21.705 544.582C21.6732 544.644 21.6399 544.705 21.6037 544.762C21.5942 544.776 21.5846 544.791 21.5771 544.804C21.5583 544.831 21.5392 544.86 21.5189 544.885C21.2221 545.286 20.9518 545.464 20.7123 545.415C20.5022 545.371 20.3163 545.151 20.1647 544.746C20.1538 544.716 20.1431 544.684 20.1322 544.653C20.1215 544.621 20.1126 544.589 20.1036 544.557C20.0993 544.541 20.095 544.524 20.0921 544.509C20.0766 544.442 20.0645 544.376 20.0547 544.306C20.0524 544.288 20.0499 544.271 20.0476 544.253C20.0427 544.218 20.0398 544.182 20.037 544.146C20.0347 544.128 20.0341 544.11 20.0336 544.092C20.033 544.074 20.0307 544.055 20.0301 544.037C20.0296 544.02 20.029 544.002 20.0287 543.982C20.0282 543.964 20.0279 543.944 20.0274 543.926C20.0268 543.908 20.0265 543.888 20.0262 543.869C20.026 543.849 20.0271 543.831 20.0269 543.812C20.0266 543.792 20.0278 543.774 20.0275 543.755C20.0272 543.735 20.0287 543.715 20.0302 543.696C20.0316 543.677 20.0314 543.657 20.0328 543.638C20.0343 543.618 20.034 543.598 20.0355 543.579C20.0369 543.56 20.0384 543.54 20.0402 543.519C20.0416 543.5 20.0434 543.478 20.0448 543.459C20.0463 543.44 20.048 543.418 20.0495 543.399C20.0527 543.358 20.0577 543.318 20.0612 543.276C20.0629 543.255 20.0661 543.236 20.0679 543.214C20.0696 543.193 20.0731 543.172 20.0749 543.151C20.0801 543.109 20.0854 543.067 20.0906 543.025C20.0941 543.004 20.0958 542.983 20.0993 542.962C20.1028 542.941 20.1046 542.92 20.1083 542.898C20.1118 542.877 20.1136 542.856 20.1174 542.833C20.1208 542.812 20.1246 542.789 20.1264 542.768C20.1336 542.725 20.1392 542.681 20.1464 542.638C20.1502 542.615 20.1537 542.594 20.1575 542.572C20.1612 542.549 20.1647 542.528 20.1685 542.505C20.1758 542.462 20.1833 542.417 20.1906 542.373C20.1944 542.351 20.1981 542.328 20.2016 542.307C20.2054 542.285 20.2092 542.262 20.213 542.239C20.2167 542.217 20.2205 542.194 20.2243 542.172L20.2356 542.104C20.2394 542.081 20.2432 542.058 20.247 542.036C20.2507 542.013 20.2545 541.991 20.2583 541.968C20.2612 541.951 20.2641 541.933 20.267 541.916L19.9099 541.856C19.6534 541.813 19.4834 541.572 19.5142 541.313L21.5216 525.321C21.5222 525.317 21.5225 525.316 21.523 525.312C21.5323 525.256 21.5419 525.199 21.5512 525.143C21.5605 525.088 21.5698 525.032 21.5791 524.976C21.5884 524.921 21.5977 524.865 21.607 524.809L21.6349 524.643C21.6442 524.587 21.6535 524.531 21.6625 524.477C21.6718 524.422 21.6808 524.368 21.6901 524.312C21.6994 524.256 21.7084 524.203 21.7177 524.147C21.736 524.037 21.7543 523.928 21.7723 523.82C21.7813 523.766 21.7903 523.712 21.7994 523.658C21.8084 523.604 21.8174 523.55 21.8281 523.497C21.8479 523.389 21.8656 523.283 21.885 523.177C21.894 523.124 21.9045 523.072 21.9149 523.02C21.9254 522.968 21.9344 522.914 21.9449 522.862C21.9553 522.81 21.964 522.758 21.9745 522.706C21.9849 522.654 21.9954 522.602 22.0058 522.551C22.0267 522.447 22.0473 522.345 22.0694 522.245C22.0795 522.195 22.0917 522.143 22.1019 522.093C22.1138 522.043 22.1239 521.993 22.1358 521.943C22.1579 521.843 22.1814 521.745 22.2066 521.647C22.2182 521.599 22.2301 521.549 22.2434 521.502C22.255 521.453 22.2684 521.406 22.2817 521.358C22.2951 521.31 22.3067 521.262 22.3197 521.216C22.333 521.168 22.3461 521.122 22.3591 521.076C22.3722 521.03 22.387 520.984 22.4003 520.936C22.4133 520.89 22.4281 520.844 22.4429 520.798C22.4577 520.753 22.4722 520.709 22.4869 520.663C22.5014 520.619 22.5162 520.573 22.5324 520.529C22.5469 520.485 22.5631 520.441 22.5794 520.398C22.5956 520.354 22.6115 520.312 22.6277 520.268C22.644 520.224 22.6599 520.182 22.6776 520.141C22.6935 520.098 22.7111 520.057 22.7288 520.015C22.7465 519.973 22.7641 519.932 22.7815 519.892C22.8166 519.81 22.853 519.73 22.8913 519.651C22.9104 519.611 22.9292 519.573 22.95 519.534C24.4064 516.661 26.5802 517.024 27.0255 520.215C27.0309 520.257 27.0378 520.301 27.043 520.344C27.0533 520.432 27.0619 520.519 27.0684 520.608C27.0716 520.653 27.075 520.696 27.0781 520.742C27.0813 520.787 27.0827 520.832 27.0858 520.877C27.0872 520.922 27.0901 520.969 27.0915 521.014C27.0926 521.061 27.094 521.105 27.0951 521.152C27.0962 521.199 27.0956 521.245 27.0967 521.292C27.0961 521.338 27.0972 521.385 27.0963 521.433C27.0957 521.479 27.0948 521.527 27.0938 521.576C27.0929 521.624 27.0903 521.671 27.0894 521.72C27.0867 521.767 27.0858 521.816 27.0829 521.865C27.0802 521.913 27.0773 521.962 27.0747 522.01C27.0717 522.06 27.0691 522.108 27.0644 522.157C27.0615 522.206 27.0568 522.256 27.0539 522.305C27.0492 522.355 27.0463 522.404 27.0413 522.455C27.0317 522.555 27.0221 522.656 27.0121 522.758C27.0072 522.809 27.0005 522.859 26.9955 522.91C26.9906 522.962 26.9839 523.012 26.9769 523.065C26.9649 523.168 26.9513 523.271 26.9376 523.375C26.9306 523.427 26.9236 523.479 26.9166 523.532C26.9097 523.584 26.9027 523.637 26.894 523.689C26.887 523.741 26.8783 523.794 26.871 523.848C26.864 523.9 26.855 523.954 26.848 524.007C26.832 524.113 26.8157 524.221 26.798 524.327C26.789 524.381 26.78 524.435 26.7727 524.489C26.7637 524.543 26.7547 524.597 26.7457 524.651C26.7277 524.759 26.7094 524.868 26.6911 524.978C26.6821 525.032 26.6728 525.087 26.6635 525.143C26.6542 525.199 26.6452 525.253 26.6359 525.308C26.6266 525.364 26.6173 525.42 26.6083 525.473L26.5804 525.64C26.5711 525.696 26.5618 525.752 26.5525 525.807C26.5432 525.863 26.5339 525.919 26.5246 525.974C26.5153 526.03 26.506 526.086 26.4964 526.143C26.4958 526.146 26.4955 526.148 26.495 526.152L23.1944 541.928C23.141 542.183 22.9019 542.356 22.6436 542.313L22.2813 542.252ZM21.5268 525.322C21.5274 525.318 21.5277 525.316 21.5282 525.313L21.5268 525.322Z" fill="#021689"/>
</g>
</g>
<defs>
<clipPath id="clip0_0_151">
<rect width="390" height="844" fill="white"/>
</clipPath>
<clipPath id="clip1_0_151">
<rect width="29.7653" height="28.9609" fill="white" transform="translate(286.739 224.151) rotate(-120)"/>
</clipPath>
<clipPath id="clip2_0_151">
<rect width="29.7653" height="28.9609" fill="white" transform="translate(10.7728 515) rotate(9.48543)"/>
</clipPath>
</defs>
</svg>
