<svg width="61" height="68" viewBox="0 0 61 68" fill="none" xmlns="http://www.w3.org/2000/svg">
<circle cx="30.5" cy="30.5" r="23.5" fill="#0394C3"/>
<path d="M29.4167 12.0191C29.1539 12.0202 28.8912 12.056 28.6356 12.1194C27.8549 12.3168 27.1721 12.7774 26.6976 13.4244C26.2368 14.0505 25.9978 14.8075 26.0012 15.6189C26.0132 18.5527 27.1288 25.8317 27.1408 28.7655C26.9046 28.5168 25.5798 27.5227 25.3436 27.274C24.6698 26.5624 23.8246 26.1913 22.9186 26.1951C22.5106 26.1967 22.1028 26.2747 21.6954 26.4289C20.342 26.9408 19.4485 28.2831 19.4684 29.7742C19.4792 30.7105 19.8285 31.5691 20.4814 32.26C21.4052 33.2341 22.3221 34.2083 23.2459 35.1894L24.3087 36.3156L25.038 37.0894C25.7118 37.801 26.3786 38.5127 27.0524 39.2174C27.7261 39.929 28.5853 40.307 29.5327 40.3031C29.5535 40.303 29.5811 40.3029 29.6019 40.3028C30.2519 40.2863 31.2054 40.0743 32.0592 39.1483C32.8304 38.3129 33.6222 37.4634 34.3796 36.6419C34.6826 36.3147 34.9855 35.9875 35.2885 35.6672C35.5983 35.333 35.9151 34.9918 36.2318 34.6576C36.9893 33.843 37.7742 33.0006 38.5385 32.1652C39.4886 31.1348 39.7597 29.7742 39.277 28.4307C38.7873 27.0733 37.5179 26.156 36.1071 26.1549L36.0863 26.1549C35.125 26.1589 34.2621 26.5439 33.5943 27.268C33.367 27.5116 31.4828 28.5218 31.2556 28.7655L32.8689 15.6879C32.8682 15.5075 32.8606 15.3411 32.8392 15.1747C32.7527 14.3151 32.3552 13.526 31.7304 12.939C31.0847 12.3383 30.2673 12.0156 29.4167 12.0191Z" fill="white"/>
<path d="M44.5558 41.4382L44.5737 45.7928C44.5793 47.1581 43.4807 48.2689 42.1193 48.2745L16.8877 48.3779C15.5264 48.3835 14.4187 47.2817 14.4131 45.9164L14.3948 41.4441" stroke="white" stroke-width="2" stroke-miterlimit="10" stroke-linecap="round"/>
</svg>
